<?xml version="1.0" encoding="utf-8" ?><svg xmlns="http://www.w3.org/2000/svg" xmlns:xlink="http://www.w3.org/1999/xlink" width="1024" height="1024" viewBox="0 0 1024 1024"><path fill="white" d="M0 0L1024 0L1024 1024L0 1024L0 0Z"/><path d="M503.562 124.25C543.178 124.229 578.996 121.733 617.517 132.318C674.715 147.864 723.267 185.744 752.259 237.443C764.161 258.71 772.28 281.881 776.256 305.925C780.05 327.916 778.76 363.76 778.816 387.115C778.865 407.405 779.62 436.417 777.907 455.785C776.809 467.939 774.622 479.969 771.374 491.733C759.117 534.794 733.738 572.963 698.769 600.923C686.961 610.316 673.354 618.836 660.245 626.238C667.396 626.724 677.338 629.199 684.442 631.033C723.65 640.981 759.66 660.794 789.049 688.589C833.385 730.575 861.024 788.986 860.18 850.569C860.086 857.422 861.025 868.096 859.083 874.553C858.147 877.695 856.441 880.554 854.121 882.871C850.137 886.863 845.985 888.313 840.457 888.543C829.221 889.011 817.078 888.771 805.81 888.745L738.547 888.653L519.375 888.604L291.522 888.63L221.363 888.62C208.834 888.64 196.245 888.937 183.73 888.543C160.474 887.812 162.815 867.481 162.858 850.911C163.283 801.833 179.856 754.261 210.017 715.542C246.747 667.784 303.409 633.807 363.317 626.031C359.112 623.077 350.521 618.784 345.37 615.565C331.41 606.803 318.474 596.507 306.804 584.868C272.499 551.295 251.058 506.752 246.215 458.998C244.667 442.823 245.273 422.804 245.311 406.271C245.363 384.926 245.298 363.581 245.118 342.237C245.08 331.761 245.558 322.032 246.781 311.634C258.968 207.983 352.083 127.501 455.349 124.532C471.306 124.073 487.547 124.296 503.562 124.25Z"/><path fill="white" d="M578.912 659.023C583.415 658.275 587.462 658.753 591.883 658.521C698.327 652.945 799.282 716.428 817.405 826.033C818.562 832.965 819.288 839.963 819.579 846.985L743.177 846.993L203.953 846.909C207.538 798.35 228.582 752.731 263.195 718.486C297.99 683.959 346.177 662.729 394.856 659.677C416.824 658.3 443.883 659.027 466.409 659.038L578.912 659.023Z"/><path fill="#F75119" d="M578.912 659.023C583.415 658.275 587.462 658.753 591.883 658.521C698.327 652.945 799.282 716.428 817.405 826.033C818.562 832.965 819.288 839.963 819.579 846.985L743.177 846.993C741.556 817.064 728.343 781.409 712.653 756.134C681.573 706.068 635.644 673.075 578.912 659.023Z"/><path d="M472.445 702.079C521.462 699.077 474.068 779.04 513.268 778.89C541.411 778.782 518.442 722.833 532.889 708.659C542.944 696.181 565.88 702.12 568.043 717.931C569.734 730.293 568.929 745.904 568.88 758.625C568.909 769.137 567.3 778.615 562.453 788.011C555.434 801.815 543.128 812.191 528.336 816.776C499.593 825.624 466.383 809.012 458.208 779.847C454.341 766.225 455.6 751.717 455.475 737.666C455.328 721.036 453.148 707.672 472.445 702.079Z"/><path fill="#F75119" d="M600.384 738.585C606.701 738.29 618.237 737.614 623.539 740.795C637.735 749.312 633.246 769.057 617.119 772.429C610.281 772.618 600.332 773.467 594.484 770.033C579.512 761.244 584.55 742.606 600.384 738.585Z"/><path fill="#F75119" d="M405.954 738.582C410.877 738.467 422.814 737.566 426.599 739.758C442.661 749.059 438.898 767.648 421.714 772.348C410.287 773.111 394.389 773.501 391.204 759.155C390.272 754.842 391.075 750.335 393.437 746.608C396.473 741.859 400.661 739.768 405.954 738.582Z"/><path fill="#F75119" d="M503.107 305.876C578.858 301.103 644.164 358.582 649.048 434.326C653.932 510.071 596.55 575.461 520.812 580.456C444.917 585.462 379.361 527.934 374.467 452.032C369.573 376.129 427.197 310.658 503.107 305.876Z"/><path fill="white" d="M346.968 224.605C351.274 224.352 354.765 224.394 358.756 226.372C363.657 228.801 405.583 270.464 411.532 277.318C413.496 279.581 415.935 282.482 416.861 285.357C418.459 290.231 417.938 295.552 415.426 300.025C412.34 305.581 408.054 308.333 402.161 310.012C398.373 310.216 394.715 310.27 391.14 308.767C385.07 306.216 334.231 256.147 331.97 249.613C330.234 244.594 330.655 238.837 333.242 234.199C336.303 228.709 341.114 226.128 346.968 224.605Z"/><path fill="white" d="M671.949 224.579C681.193 223.979 689.071 227.249 692.632 236.112C696.756 246.556 691.155 253.227 684.187 260.148C669.089 275.143 654.023 290.278 638.741 305.065C636.516 307.218 633.643 308.502 630.755 309.503C618.207 311.311 609.042 304.554 607.9 291.359C607.724 289.32 608.659 284.262 610.015 282.71C626.713 263.596 645.926 246.112 663.904 228.122C665.678 226.347 669.535 225.234 671.949 224.579Z"/><path fill="white" d="M506.671 174.617C519.711 173.367 530.729 179.251 530.876 193.532C531.083 213.602 531.033 233.761 530.706 253.827C530.546 263.602 524.507 269.243 515.521 271.923C511.557 272.639 507.633 272.249 503.915 270.654C499.379 268.709 494.912 264.504 493.285 259.757C491.424 254.328 491.724 202.234 492.414 193.514C492.652 190.504 493.089 187.162 494.449 184.445C497.063 179.223 501.354 176.486 506.671 174.617Z"/></svg>