<?xml version="1.0" encoding="UTF-8" standalone="no"?><!DOCTYPE svg PUBLIC "-//W3C//DTD SVG 1.1//EN" "http://www.w3.org/Graphics/SVG/1.1/DTD/svg11.dtd"><svg width="100%" height="100%" viewBox="0 0 246 246" version="1.1" xmlns="http://www.w3.org/2000/svg" xmlns:xlink="http://www.w3.org/1999/xlink" xml:space="preserve" xmlns:serif="http://www.serif.com/" style="fill-rule:evenodd;clip-rule:evenodd;stroke-linejoin:round;stroke-miterlimit:2;"><path id="nube-de-detrás" serif:id="nube de detrás" d="M72.905,181.511l12.553,0.088l18.719,-0.088l62.567,-0.177c0,0 1.63,-0.253 2.431,-0.442c0.81,-0.192 1.634,-0.43 2.431,-0.707c0.891,-0.309 2.002,-0.645 2.917,-1.149c1.164,-0.641 2.846,-1.621 4.067,-2.696c1.304,-1.149 2.682,-2.659 3.757,-4.199c1.157,-1.658 2.475,-4.092 3.183,-5.746c0.565,-1.321 0.861,-2.754 1.061,-4.177c0.206,-1.47 0.213,-3.093 0.177,-4.641c-0.037,-1.562 -0.074,-3.293 -0.398,-4.73c-0.307,-1.361 -1.002,-2.685 -1.547,-3.89c-0.516,-1.141 -1.149,-2.42 -1.724,-3.337c-0.49,-0.782 -1.127,-1.466 -1.724,-2.166c-0.595,-0.698 -1.267,-1.503 -1.856,-2.033c-0.504,-0.454 -1.11,-0.781 -1.68,-1.149c-0.626,-0.405 -1.358,-0.902 -2.077,-1.282c-0.796,-0.42 -1.886,-0.936 -2.696,-1.238c-0.7,-0.261 -1.435,-0.421 -2.166,-0.575c-0.774,-0.162 -1.643,-0.318 -2.475,-0.398c-0.84,-0.081 -1.716,-0.066 -2.564,-0.088c-0.84,-0.022 -1.93,-0.037 -2.519,-0.044c-0.339,-0.004 -0.945,0.331 -1.017,0c-0.074,-0.339 0.487,-1.334 0.575,-2.033c0.118,-0.936 0.118,-2.601 0.133,-3.58c0.012,-0.766 -0.007,-1.602 -0.044,-2.298c-0.033,-0.628 -0.049,-1.263 -0.177,-1.879c-0.169,-0.814 -0.567,-2.232 -0.84,-3.006c-0.201,-0.572 -0.505,-1.103 -0.796,-1.635c-0.398,-0.729 -0.964,-1.89 -1.591,-2.74c-0.641,-0.869 -1.543,-1.698 -2.254,-2.475c-0.669,-0.731 -1.271,-1.551 -2.011,-2.188c-0.74,-0.637 -1.592,-1.136 -2.431,-1.635c-0.855,-0.508 -1.753,-1.041 -2.696,-1.414c-1.024,-0.405 -2.284,-0.788 -3.448,-1.017c-1.162,-0.228 -2.534,-0.265 -3.536,-0.354c-0.824,-0.073 -1.658,-0.147 -2.475,-0.177c-0.81,-0.029 -1.65,-0.066 -2.431,0c-0.76,0.065 -1.599,0.236 -2.254,0.398c-0.574,0.142 -1.124,0.37 -1.68,0.575c-0.641,0.236 -1.488,0.516 -2.166,0.84c-0.661,0.316 -1.326,0.751 -1.901,1.105c-0.526,0.323 -1.201,1.157 -1.547,1.017c-0.346,-0.14 -0.331,-1.245 -0.53,-1.856c-0.228,-0.7 -0.543,-1.568 -0.84,-2.343c-0.302,-0.788 -0.596,-1.614 -0.972,-2.387c-0.413,-0.847 -0.954,-1.826 -1.503,-2.696c-0.604,-0.958 -1.392,-2.129 -2.122,-3.05c-0.693,-0.875 -1.455,-1.697 -2.254,-2.475c-0.825,-0.803 -1.967,-1.731 -2.696,-2.343c-0.547,-0.458 -1.12,-0.884 -1.68,-1.326c-0.56,-0.442 -1.076,-0.946 -1.68,-1.326c-0.774,-0.486 -1.942,-1.125 -2.961,-1.591c-1.112,-0.508 -2.483,-1.046 -3.713,-1.459c-1.203,-0.403 -2.424,-0.77 -3.669,-1.017c-1.451,-0.287 -3.625,-0.589 -5.039,-0.707c-1.145,-0.095 -2.3,-0.057 -3.448,0c-1.193,0.059 -2.869,0.25 -3.713,0.354c-0.455,0.056 -0.909,0.135 -1.348,0.265c-0.748,0.221 -2.232,0.729 -3.138,1.061c-0.776,0.284 -1.542,0.596 -2.298,0.928c-0.788,0.346 -1.642,0.724 -2.431,1.149c-0.943,0.508 -2.197,1.195 -3.227,1.901c-1.053,0.722 -2.144,1.65 -3.094,2.431c-0.888,0.729 -1.834,1.466 -2.608,2.254c-0.748,0.762 -1.525,1.879 -2.033,2.475c-0.325,0.381 -0.723,0.7 -1.017,1.105c-0.309,0.427 -0.55,0.979 -0.84,1.459c-0.383,0.634 -1.024,1.599 -1.459,2.343c-0.406,0.694 -0.81,1.437 -1.149,2.122c-0.322,0.65 -0.67,1.429 -0.884,1.989c-0.17,0.444 -0.261,0.915 -0.398,1.37c-0.199,0.663 -0.597,1.805 -0.796,2.608c-0.18,0.727 -0.287,1.473 -0.398,2.21c-0.11,0.734 -0.221,1.687 -0.265,2.21c-0.026,0.308 0.214,0.972 0,0.928c-0.214,-0.044 -0.818,-0.838 -1.282,-1.193c-0.567,-0.435 -1.372,-1.014 -2.122,-1.414c-0.774,-0.413 -1.731,-0.774 -2.519,-1.061c-0.723,-0.263 -1.448,-0.56 -2.21,-0.663c-0.98,-0.133 -2.586,-0.088 -3.669,-0.133c-0.943,-0.038 -1.891,-0.24 -2.829,-0.133c-1.031,0.118 -2.438,0.6 -3.359,0.84c-0.725,0.188 -1.486,0.283 -2.166,0.597c-0.855,0.394 -2.055,1.142 -2.961,1.768c-0.871,0.602 -1.692,1.277 -2.475,1.989c-0.803,0.729 -1.628,1.562 -2.343,2.387c-0.702,0.811 -1.392,1.665 -1.945,2.564c-0.549,0.893 -0.956,1.866 -1.37,2.829c-0.42,0.976 -0.921,2.114 -1.149,3.028c-0.199,0.797 -0.177,1.801 -0.221,2.453c-0.033,0.486 0.397,1.253 -0.044,1.462c-0.516,0.244 -2.217,0 -3.05,0c-0.648,0 -1.306,-0.111 -1.945,0c-0.674,0.117 -1.403,0.469 -2.1,0.704c-0.693,0.234 -1.391,0.456 -2.077,0.707c-0.744,0.273 -1.629,0.536 -2.387,0.928c-0.825,0.427 -1.775,1.053 -2.564,1.635c-0.765,0.565 -1.51,1.252 -2.166,1.856c-0.613,0.565 -1.19,1.168 -1.768,1.768c-0.582,0.604 -1.282,1.304 -1.724,1.856c-0.36,0.45 -0.624,0.969 -0.928,1.459c-0.383,0.615 -1.031,1.521 -1.37,2.232c-0.307,0.644 -0.421,1.363 -0.663,2.033c-0.258,0.715 -0.678,1.591 -0.884,2.254c-0.174,0.56 -0.299,1.14 -0.354,1.724c-0.066,0.707 -0.037,1.68 -0.044,2.519c-0.007,0.884 -0.082,1.86 0,2.785c0.088,0.995 0.302,2.199 0.53,3.183c0.215,0.924 0.53,1.823 0.84,2.718c0.309,0.895 0.7,1.945 1.017,2.652c0.248,0.554 0.559,1.079 0.884,1.591c0.398,0.626 0.971,1.466 1.503,2.166c0.538,0.707 1.131,1.4 1.724,2.077c0.619,0.707 1.227,1.549 1.989,2.166c0.81,0.656 1.9,1.205 2.873,1.768c0.98,0.567 1.982,1.223 3.006,1.635c1.004,0.405 2.262,0.626 3.138,0.84c0.702,0.171 1.4,0.413 2.122,0.442c1.853,0.074 5.997,0.018 8.995,0c3.728,-0.022 9.691,-0.133 13.371,-0.133c2.903,0 5.967,0.133 8.708,0.133c2.579,0 5.345,-0.092 7.735,-0.133c2.203,-0.037 6.608,-0.111 6.608,-0.111Z" style="fill:#ccc;"/><path id="nube" d="M112.424,193.693l12.553,0.088l18.719,-0.088l62.567,-0.177c0,0 1.63,-0.253 2.431,-0.442c0.81,-0.192 1.634,-0.43 2.431,-0.707c0.891,-0.309 2.002,-0.645 2.917,-1.149c1.164,-0.641 2.846,-1.621 4.067,-2.696c1.304,-1.149 2.682,-2.659 3.757,-4.199c1.157,-1.658 2.475,-4.092 3.183,-5.746c0.565,-1.321 0.861,-2.754 1.061,-4.177c0.206,-1.47 0.213,-3.093 0.177,-4.641c-0.037,-1.562 -0.074,-3.293 -0.398,-4.73c-0.307,-1.361 -1.002,-2.685 -1.547,-3.89c-0.516,-1.141 -1.149,-2.42 -1.724,-3.337c-0.49,-0.782 -1.127,-1.466 -1.724,-2.166c-0.595,-0.698 -1.267,-1.503 -1.856,-2.033c-0.504,-0.454 -1.11,-0.781 -1.68,-1.149c-0.626,-0.405 -1.358,-0.902 -2.077,-1.282c-0.796,-0.42 -1.886,-0.936 -2.696,-1.238c-0.7,-0.261 -1.435,-0.421 -2.166,-0.575c-0.774,-0.162 -1.643,-0.318 -2.475,-0.398c-0.84,-0.081 -1.716,-0.066 -2.564,-0.088c-0.84,-0.022 -1.93,-0.037 -2.519,-0.044c-0.339,-0.004 -0.945,0.331 -1.017,0c-0.074,-0.339 0.487,-1.334 0.575,-2.033c0.118,-0.936 0.118,-2.601 0.133,-3.58c0.012,-0.766 -0.007,-1.602 -0.044,-2.298c-0.033,-0.628 -0.049,-1.263 -0.177,-1.879c-0.169,-0.814 -0.567,-2.232 -0.84,-3.006c-0.201,-0.572 -0.505,-1.103 -0.796,-1.635c-0.398,-0.729 -0.964,-1.89 -1.591,-2.74c-0.641,-0.869 -1.543,-1.698 -2.254,-2.475c-0.669,-0.731 -1.271,-1.551 -2.011,-2.188c-0.74,-0.637 -1.592,-1.136 -2.431,-1.635c-0.855,-0.508 -1.753,-1.041 -2.696,-1.414c-1.024,-0.405 -2.284,-0.788 -3.448,-1.017c-1.162,-0.228 -2.534,-0.265 -3.536,-0.354c-0.824,-0.073 -1.658,-0.147 -2.475,-0.177c-0.81,-0.029 -1.65,-0.066 -2.431,0c-0.76,0.065 -1.599,0.236 -2.254,0.398c-0.574,0.142 -1.124,0.37 -1.68,0.575c-0.641,0.236 -1.488,0.516 -2.166,0.84c-0.661,0.316 -1.326,0.751 -1.901,1.105c-0.526,0.323 -1.201,1.157 -1.547,1.017c-0.346,-0.14 -0.331,-1.245 -0.53,-1.856c-0.228,-0.7 -0.543,-1.568 -0.84,-2.343c-0.302,-0.788 -0.596,-1.614 -0.972,-2.387c-0.413,-0.847 -0.954,-1.826 -1.503,-2.696c-0.604,-0.958 -1.392,-2.129 -2.122,-3.05c-0.693,-0.875 -1.455,-1.697 -2.254,-2.475c-0.825,-0.803 -1.967,-1.731 -2.696,-2.343c-0.547,-0.458 -1.12,-0.884 -1.68,-1.326c-0.56,-0.442 -1.076,-0.946 -1.68,-1.326c-0.774,-0.486 -1.942,-1.125 -2.961,-1.591c-1.112,-0.508 -2.483,-1.046 -3.713,-1.459c-1.203,-0.403 -2.424,-0.77 -3.669,-1.017c-1.451,-0.287 -3.625,-0.589 -5.039,-0.707c-1.145,-0.095 -2.3,-0.057 -3.448,0c-1.193,0.059 -2.869,0.25 -3.713,0.354c-0.455,0.056 -0.909,0.135 -1.348,0.265c-0.748,0.221 -2.232,0.729 -3.138,1.061c-0.776,0.284 -1.542,0.596 -2.298,0.928c-0.788,0.346 -1.642,0.724 -2.431,1.149c-0.943,0.508 -2.197,1.195 -3.227,1.901c-1.053,0.722 -2.144,1.65 -3.094,2.431c-0.888,0.729 -1.834,1.466 -2.608,2.254c-0.748,0.762 -1.525,1.879 -2.033,2.475c-0.325,0.381 -0.723,0.7 -1.017,1.105c-0.309,0.427 -0.55,0.979 -0.84,1.459c-0.383,0.634 -1.024,1.599 -1.459,2.343c-0.406,0.694 -0.81,1.437 -1.149,2.122c-0.322,0.65 -0.67,1.429 -0.884,1.989c-0.17,0.444 -0.261,0.915 -0.398,1.37c-0.199,0.663 -0.597,1.805 -0.796,2.608c-0.18,0.727 -0.287,1.473 -0.398,2.21c-0.11,0.734 -0.221,1.687 -0.265,2.21c-0.026,0.308 0.214,0.972 0,0.928c-0.214,-0.044 -0.818,-0.838 -1.282,-1.193c-0.567,-0.435 -1.372,-1.014 -2.122,-1.414c-0.774,-0.413 -1.731,-0.774 -2.519,-1.061c-0.723,-0.263 -1.448,-0.56 -2.21,-0.663c-0.98,-0.133 -2.586,-0.088 -3.669,-0.133c-0.943,-0.038 -1.891,-0.24 -2.829,-0.133c-1.031,0.118 -2.438,0.6 -3.359,0.84c-0.725,0.188 -1.486,0.283 -2.166,0.597c-0.855,0.394 -2.055,1.142 -2.961,1.768c-0.871,0.602 -1.692,1.277 -2.475,1.989c-0.803,0.729 -1.628,1.562 -2.343,2.387c-0.702,0.811 -1.392,1.665 -1.945,2.564c-0.549,0.893 -0.956,1.866 -1.37,2.829c-0.42,0.976 -0.921,2.114 -1.149,3.028c-0.199,0.797 -0.177,1.801 -0.221,2.453c-0.033,0.486 0.397,1.253 -0.044,1.462c-0.516,0.244 -2.217,0 -3.05,0c-0.648,0 -1.306,-0.111 -1.945,0c-0.674,0.117 -1.403,0.469 -2.1,0.704c-0.693,0.234 -1.391,0.456 -2.077,0.707c-0.744,0.273 -1.629,0.536 -2.387,0.928c-0.825,0.427 -1.775,1.053 -2.564,1.635c-0.765,0.565 -1.51,1.252 -2.166,1.856c-0.613,0.565 -1.19,1.168 -1.768,1.768c-0.582,0.604 -1.282,1.304 -1.724,1.856c-0.36,0.45 -0.624,0.969 -0.928,1.459c-0.383,0.615 -1.031,1.521 -1.37,2.232c-0.307,0.644 -0.421,1.363 -0.663,2.033c-0.258,0.715 -0.678,1.591 -0.884,2.254c-0.174,0.56 -0.299,1.14 -0.354,1.724c-0.066,0.707 -0.037,1.68 -0.044,2.519c-0.007,0.884 -0.082,1.86 0,2.785c0.088,0.995 0.302,2.199 0.53,3.183c0.215,0.924 0.53,1.823 0.84,2.718c0.309,0.895 0.7,1.945 1.017,2.652c0.248,0.554 0.559,1.079 0.884,1.591c0.398,0.626 0.971,1.466 1.503,2.166c0.538,0.707 1.131,1.4 1.724,2.077c0.619,0.707 1.227,1.549 1.989,2.166c0.81,0.656 1.9,1.205 2.873,1.768c0.98,0.567 1.982,1.223 3.006,1.635c1.004,0.405 2.262,0.626 3.138,0.84c0.702,0.171 1.4,0.413 2.122,0.442c1.853,0.074 5.997,0.018 8.995,0c3.728,-0.022 9.691,-0.133 13.371,-0.133c2.903,0 5.967,0.133 8.708,0.133c2.579,0 5.345,-0.092 7.735,-0.133c2.203,-0.037 6.608,-0.111 6.608,-0.111Z" style="fill:#f9feff;"/></svg>