<?xml version="1.0" encoding="UTF-8" standalone="no"?><!DOCTYPE svg PUBLIC "-//W3C//DTD SVG 1.1//EN" "http://www.w3.org/Graphics/SVG/1.1/DTD/svg11.dtd"><svg width="100%" height="100%" viewBox="0 0 246 246" version="1.1" xmlns="http://www.w3.org/2000/svg" xmlns:xlink="http://www.w3.org/1999/xlink" xml:space="preserve" xmlns:serif="http://www.serif.com/" style="fill-rule:evenodd;clip-rule:evenodd;stroke-linecap:round;stroke-linejoin:round;stroke-miterlimit:1.5;"><path id="rayos-del-sol" serif:id="rayos del sol" d="M110.948,166.722c0.212,0.4 0.595,1.154 0.756,1.589c0.121,0.326 0.129,0.684 0.211,1.022c0.094,0.388 0.264,0.887 0.352,1.304c0.083,0.395 0.132,0.797 0.176,1.198c0.047,0.429 0.082,0.957 0.106,1.374c0.021,0.376 0.024,0.752 0.035,1.128c0.012,0.382 0.024,0.775 0.035,1.163c0.012,0.391 0.035,0.802 0.035,1.181c0,0.364 -0.031,0.728 -0.035,1.093c-0.006,0.493 -0.012,1.327 0,1.868c0.01,0.459 0.042,0.917 0.07,1.374c0.029,0.476 0.041,1.016 0.106,1.48c0.061,0.44 0.178,0.872 0.282,1.304c0.112,0.464 0.223,1.04 0.388,1.48c0.153,0.409 0.363,0.796 0.599,1.163c0.264,0.411 0.651,0.875 0.987,1.304c0.341,0.435 0.699,0.934 1.057,1.304c0.331,0.341 0.734,0.634 1.093,0.916c0.343,0.27 0.68,0.555 1.057,0.775c0.382,0.223 0.81,0.405 1.234,0.564c0.499,0.188 1.198,0.458 1.762,0.564c0.533,0.1 1.084,0.041 1.625,0.07c0.54,0.029 1.195,0.123 1.618,0.106c0.313,-0.013 0.615,-0.125 0.916,-0.211c0.329,-0.094 0.711,-0.218 1.057,-0.352c0.394,-0.153 0.879,-0.354 1.304,-0.564c0.452,-0.223 0.993,-0.47 1.41,-0.775c0.409,-0.299 0.793,-0.722 1.093,-1.057c0.263,-0.294 0.456,-0.645 0.705,-0.952c0.282,-0.347 0.687,-0.74 0.987,-1.128c0.295,-0.382 0.629,-0.787 0.811,-1.198c0.175,-0.396 0.199,-0.844 0.282,-1.269c0.088,-0.452 0.19,-0.96 0.247,-1.445c0.059,-0.499 0.079,-1.084 0.106,-1.551c0.024,-0.417 0.041,-0.834 0.053,-1.251c0.015,-0.496 0.035,-1.151 0.035,-1.727c0,-0.717 -0.023,-1.856 -0.035,-2.573c-0.009,-0.576 -0.065,-1.187 -0.035,-1.727c0.028,-0.509 0.164,-1.069 0.211,-1.515c0.041,-0.386 0.022,-0.778 0.07,-1.163c0.053,-0.417 0.176,-0.94 0.247,-1.339c0.062,-0.352 0.083,-0.712 0.176,-1.057c0.094,-0.347 0.241,-0.699 0.388,-1.022c0.144,-0.316 0.325,-0.613 0.493,-0.916c0.182,-0.329 0.37,-0.74 0.599,-1.057c0.224,-0.31 0.525,-0.557 0.775,-0.846c0.27,-0.311 0.54,-0.711 0.846,-1.022c0.303,-0.309 0.64,-0.586 0.987,-0.846c0.352,-0.264 0.722,-0.546 1.128,-0.74c0.405,-0.194 0.856,-0.333 1.304,-0.423c0.529,-0.106 1.298,-0.176 1.868,-0.211c0.516,-0.032 1.051,-0.053 1.551,0c0.49,0.052 0.976,0.166 1.445,0.317c0.529,0.17 1.251,0.482 1.727,0.705c0.39,0.183 0.769,0.441 1.128,0.634c0.337,0.183 0.693,0.332 1.022,0.529c0.364,0.217 0.791,0.495 1.163,0.775c0.429,0.323 0.963,0.811 1.41,1.163c0.415,0.328 0.887,0.593 1.269,0.952c0.382,0.358 0.675,0.816 1.022,1.198c0.341,0.375 0.734,0.764 1.057,1.093c0.291,0.296 0.596,0.579 0.881,0.881c0.3,0.317 0.611,0.693 0.916,1.022c0.3,0.323 0.593,0.675 0.916,0.952c0.315,0.269 0.69,0.457 1.022,0.705c0.417,0.311 1.04,0.893 1.48,1.163c0.355,0.218 0.775,0.307 1.163,0.458c0.452,0.176 1.003,0.513 1.551,0.599c0.67,0.106 1.774,0.029 2.467,0.035c0.564,0.005 1.204,0.076 1.692,0c0.433,-0.068 0.838,-0.269 1.234,-0.458c0.429,-0.206 0.9,-0.505 1.339,-0.775c0.488,-0.3 1.122,-0.664 1.586,-1.022c0.434,-0.335 0.828,-0.723 1.198,-1.128c0.382,-0.417 0.775,-0.905 1.093,-1.374c0.309,-0.458 0.605,-0.999 0.811,-1.445c0.182,-0.395 0.282,-0.828 0.423,-1.234c0.139,-0.4 0.329,-0.79 0.423,-1.198c0.094,-0.408 0.112,-0.837 0.141,-1.251c0.029,-0.41 0.065,-0.84 0.035,-1.234c-0.028,-0.381 -0.113,-0.758 -0.211,-1.128c-0.112,-0.417 -0.3,-0.975 -0.458,-1.374c-0.14,-0.352 -0.294,-0.701 -0.493,-1.022c-0.241,-0.388 -0.604,-0.893 -0.952,-1.304c-0.352,-0.417 -0.787,-0.799 -1.163,-1.198c-0.37,-0.394 -0.728,-0.799 -1.093,-1.198c-0.37,-0.405 -0.802,-0.843 -1.128,-1.234c-0.296,-0.354 -0.532,-0.756 -0.828,-1.11c-0.326,-0.391 -0.805,-0.869 -1.128,-1.234c-0.277,-0.312 -0.545,-0.63 -0.811,-0.952c-0.305,-0.37 -0.699,-0.863 -1.022,-1.269c-0.308,-0.386 -0.597,-0.787 -0.916,-1.163c-0.329,-0.388 -0.805,-0.793 -1.057,-1.163c-0.217,-0.317 -0.3,-0.734 -0.458,-1.057c-0.148,-0.302 -0.343,-0.58 -0.493,-0.881c-0.164,-0.329 -0.348,-0.72 -0.493,-1.093c-0.188,-0.482 -0.54,-1.326 -0.634,-1.797c-0.067,-0.338 0.07,-0.688 0.07,-1.033c0,-0.352 -0.075,-0.72 -0.07,-1.082c0.006,-0.439 0.029,-1.163 0.106,-1.551c0.055,-0.279 0.225,-0.521 0.352,-0.775c0.17,-0.341 0.417,-0.91 0.67,-1.269c0.235,-0.333 0.563,-0.589 0.846,-0.881c0.352,-0.364 0.802,-0.917 1.269,-1.304c0.482,-0.399 1.14,-0.799 1.621,-1.093c0.408,-0.249 0.82,-0.505 1.269,-0.67c0.482,-0.176 1.077,-0.278 1.621,-0.388c0.611,-0.123 1.386,-0.27 2.044,-0.352c0.631,-0.079 1.339,-0.088 1.903,-0.141c0.495,-0.046 0.984,-0.148 1.48,-0.176c0.629,-0.035 1.557,-0.029 2.291,-0.035c0.705,-0.006 1.48,0 2.115,0c0.564,0 1.157,0.035 1.692,0c0.509,-0.034 1.046,-0.153 1.515,-0.211c0.434,-0.054 0.885,-0.016 1.304,-0.141c0.452,-0.135 0.946,-0.435 1.41,-0.67c0.488,-0.247 1.02,-0.522 1.515,-0.811c0.535,-0.311 1.322,-0.74 1.692,-1.057c0.252,-0.216 0.355,-0.562 0.529,-0.846c0.202,-0.33 0.465,-0.752 0.683,-1.137c0.224,-0.395 0.475,-0.806 0.661,-1.234c0.198,-0.455 0.382,-1.035 0.529,-1.498c0.134,-0.421 0.306,-0.838 0.352,-1.278c0.073,-0.698 0.14,-2.159 0.088,-2.908c-0.037,-0.544 -0.226,-1.068 -0.396,-1.586c-0.176,-0.536 -0.404,-1.103 -0.661,-1.63c-0.272,-0.558 -0.624,-1.219 -0.969,-1.718c-0.32,-0.463 -0.674,-0.912 -1.101,-1.278c-0.455,-0.389 -1.077,-0.721 -1.63,-1.057c-0.58,-0.352 -1.307,-0.764 -1.85,-1.057c-0.462,-0.25 -0.984,-0.565 -1.41,-0.705c-0.365,-0.12 -0.762,-0.104 -1.145,-0.132c-0.507,-0.037 -1.366,-0.073 -1.894,-0.088c-0.426,-0.012 -0.852,0 -1.278,0l-1.366,0c-0.602,0 -1.579,0.015 -2.247,0c-0.588,-0.013 -1.179,-0.01 -1.762,-0.088c-0.602,-0.081 -1.358,-0.301 -1.85,-0.396c-0.365,-0.071 -0.742,-0.117 -1.101,-0.176c-0.353,-0.058 -0.708,-0.102 -1.057,-0.176c-0.448,-0.095 -1.167,-0.264 -1.63,-0.396c-0.388,-0.111 -0.772,-0.243 -1.145,-0.396c-0.374,-0.154 -0.771,-0.29 -1.101,-0.529c-0.396,-0.286 -0.866,-0.8 -1.278,-1.189c-0.4,-0.378 -0.866,-0.727 -1.189,-1.145c-0.317,-0.411 -0.537,-0.892 -0.749,-1.366c-0.22,-0.492 -0.468,-1.034 -0.573,-1.586c-0.11,-0.582 -0.073,-1.336 -0.088,-1.909c-0.013,-0.509 -0.037,-1.118 0,-1.527c0.028,-0.316 0.087,-0.637 0.22,-0.925c0.176,-0.382 0.602,-0.925 0.837,-1.366c0.22,-0.412 0.382,-0.903 0.573,-1.278c0.17,-0.334 0.366,-0.656 0.573,-0.969c0.257,-0.389 0.63,-0.922 0.969,-1.366c0.477,-0.624 1.358,-1.762 1.894,-2.379c0.409,-0.47 0.888,-0.918 1.322,-1.322c0.411,-0.383 0.887,-0.697 1.278,-1.101c0.396,-0.411 0.72,-0.955 1.101,-1.366c0.368,-0.396 0.798,-0.729 1.189,-1.101c0.463,-0.441 1.204,-1.079 1.586,-1.542c0.301,-0.365 0.518,-0.799 0.705,-1.234c0.206,-0.477 0.411,-1.079 0.529,-1.63c0.117,-0.549 0.134,-1.115 0.176,-1.674c0.044,-0.587 0.074,-1.233 0.088,-1.85c0.015,-0.661 0.095,-1.513 0,-2.115c-0.084,-0.528 -0.348,-1.013 -0.573,-1.498c-0.228,-0.492 -0.47,-1.006 -0.793,-1.454c-0.323,-0.448 -0.734,-0.851 -1.145,-1.234c-0.419,-0.389 -0.94,-0.723 -1.366,-1.101c-0.415,-0.369 -0.786,-0.885 -1.189,-1.167c-0.366,-0.257 -0.814,-0.372 -1.234,-0.529c-0.492,-0.184 -1.234,-0.477 -1.718,-0.573c-0.389,-0.077 -0.793,0 -1.189,0c-0.551,0 -1.498,-0.037 -2.115,0c-0.533,0.032 -1.101,0.059 -1.586,0.22c-0.48,0.16 -0.878,0.505 -1.322,0.749c-0.455,0.25 -0.965,0.457 -1.41,0.749c-0.448,0.294 -0.846,0.683 -1.278,1.013c-0.441,0.338 -0.927,0.654 -1.366,1.013c-0.448,0.367 -0.91,0.841 -1.322,1.189c-0.371,0.315 -0.815,0.598 -1.145,0.903c-0.306,0.282 -0.543,0.631 -0.837,0.925c-0.33,0.33 -0.748,0.722 -1.145,1.057c-0.426,0.36 -0.984,0.793 -1.41,1.101c-0.369,0.268 -0.768,0.493 -1.145,0.749c-0.389,0.264 -0.771,0.592 -1.189,0.837c-0.426,0.25 -0.947,0.419 -1.366,0.661c-0.402,0.233 -0.749,0.58 -1.145,0.793c-0.389,0.209 -0.815,0.367 -1.234,0.485c-0.416,0.117 -0.915,0.176 -1.278,0.22c-0.298,0.036 -0.6,0.039 -0.901,0.044c-0.463,0.007 -1.298,0.066 -1.875,0c-0.541,-0.062 -1.189,-0.22 -1.586,-0.396c-0.314,-0.14 -0.523,-0.447 -0.793,-0.661c-0.352,-0.279 -0.916,-0.634 -1.322,-1.013c-0.448,-0.419 -0.969,-0.954 -1.366,-1.498c-0.396,-0.543 -0.769,-1.185 -1.013,-1.762c-0.228,-0.54 -0.283,-1.141 -0.45,-1.699c-0.166,-0.556 -0.375,-1.099 -0.551,-1.652c-0.193,-0.606 -0.496,-1.358 -0.606,-1.982c-0.102,-0.579 -0.046,-1.175 -0.055,-1.762c-0.009,-0.597 0,-1.211 0,-1.817c0,-0.716 -0.018,-1.689 0,-2.478c0.018,-0.753 0.092,-1.579 0.11,-2.258c0.016,-0.606 0.092,-1.303 0,-1.817c-0.081,-0.453 -0.377,-0.84 -0.551,-1.267c-0.22,-0.541 -0.43,-1.361 -0.771,-1.982c-0.367,-0.67 -0.899,-1.468 -1.432,-2.037c-0.509,-0.544 -1.135,-0.973 -1.762,-1.377c-0.67,-0.431 -1.468,-0.887 -2.258,-1.211c-0.826,-0.34 -1.854,-0.688 -2.698,-0.826c-0.779,-0.127 -1.725,-0.028 -2.368,0c-0.498,0.021 -1.01,0.046 -1.487,0.165c-0.477,0.119 -0.982,0.358 -1.377,0.551c-0.348,0.17 -0.677,0.379 -0.991,0.606c-0.395,0.285 -0.927,0.723 -1.377,1.101c-0.459,0.385 -0.991,0.808 -1.377,1.211c-0.352,0.369 -0.688,0.789 -0.936,1.211c-0.242,0.412 -0.341,0.893 -0.551,1.322c-0.22,0.45 -0.602,0.879 -0.771,1.377c-0.184,0.541 -0.266,1.248 -0.33,1.872c-0.064,0.621 -0.046,1.248 -0.055,1.872c-0.009,0.624 0,1.248 0,1.872c0,0.633 0.028,1.285 0,1.927c-0.028,0.642 -0.128,1.331 -0.165,1.927c-0.034,0.55 -0.037,1.111 -0.055,1.652c-0.018,0.532 0.035,1.072 -0.055,1.597c-0.101,0.587 -0.427,1.464 -0.551,1.927c-0.075,0.282 -0.076,0.586 -0.193,0.854c-0.142,0.326 -0.466,0.72 -0.661,1.101c-0.211,0.413 -0.367,0.955 -0.606,1.377c-0.233,0.412 -0.541,0.817 -0.826,1.156c-0.267,0.318 -0.606,0.661 -0.881,0.881c-0.231,0.185 -0.519,0.285 -0.771,0.441c-0.358,0.22 -0.927,0.688 -1.377,0.881c-0.414,0.177 -0.873,0.24 -1.322,0.275c-0.586,0.046 -1.533,0.028 -2.194,0c-0.592,-0.025 -1.21,-0.028 -1.771,-0.165c-0.56,-0.137 -1.065,-0.439 -1.597,-0.661c-0.551,-0.229 -1.23,-0.404 -1.707,-0.716c-0.456,-0.298 -0.743,-0.835 -1.156,-1.156c-0.403,-0.313 -0.896,-0.49 -1.322,-0.771c-0.431,-0.285 -0.854,-0.615 -1.267,-0.936c-0.412,-0.32 -0.808,-0.661 -1.211,-0.991c-0.505,-0.413 -1.322,-1.01 -1.817,-1.487c-0.432,-0.416 -0.753,-0.933 -1.156,-1.377c-0.459,-0.505 -1.092,-1.193 -1.597,-1.652c-0.446,-0.405 -0.936,-0.817 -1.432,-1.101c-0.479,-0.275 -1.028,-0.404 -1.542,-0.606c-0.514,-0.202 -1.037,-0.468 -1.542,-0.606c-0.483,-0.132 -1.028,-0.184 -1.487,-0.22c-0.421,-0.034 -0.844,0 -1.267,0c-0.541,0 -1.441,-0.009 -1.982,0c-0.423,0.007 -0.856,-0.045 -1.267,0.055c-0.413,0.101 -0.844,0.349 -1.211,0.551c-0.348,0.191 -0.675,0.421 -0.991,0.661c-0.34,0.257 -0.7,0.584 -1.046,0.881c-0.385,0.33 -0.893,0.685 -1.267,1.101c-0.395,0.441 -0.78,1.01 -1.101,1.542c-0.318,0.527 -0.587,1.12 -0.826,1.652c-0.226,0.504 -0.468,1.065 -0.606,1.542c-0.124,0.429 -0.203,0.875 -0.22,1.322c-0.018,0.477 0.067,1.028 0.11,1.542c0.046,0.551 0.055,1.193 0.165,1.762c0.109,0.564 0.266,1.184 0.496,1.652c0.213,0.435 0.597,0.78 0.881,1.156c0.277,0.366 0.552,0.733 0.826,1.101c0.349,0.468 0.826,1.207 1.267,1.707c0.416,0.473 0.955,0.876 1.377,1.294c0.397,0.393 0.786,0.794 1.156,1.211c0.431,0.486 1.01,1.267 1.432,1.707c0.333,0.348 0.774,0.582 1.101,0.936c0.34,0.367 0.615,0.863 0.936,1.267c0.316,0.397 0.716,0.743 0.991,1.156c0.273,0.41 0.441,0.881 0.661,1.322c0.257,0.514 0.624,1.294 0.881,1.762c0.199,0.362 0.56,0.646 0.661,1.046c0.147,0.582 0.193,1.756 0.22,2.444c0.022,0.562 0.037,1.138 -0.055,1.686c-0.092,0.547 -0.303,1.111 -0.496,1.597c-0.181,0.458 -0.376,0.936 -0.661,1.322c-0.285,0.385 -0.753,0.675 -1.046,0.991c-0.262,0.283 -0.423,0.657 -0.716,0.909c-0.358,0.307 -0.92,0.684 -1.432,0.936c-0.56,0.275 -1.274,0.51 -1.927,0.716c-0.67,0.211 -1.404,0.358 -2.093,0.551c-0.682,0.191 -1.395,0.496 -2.037,0.606c-0.597,0.102 -1.211,0.038 -1.817,0.055c-0.642,0.018 -1.377,0.046 -2.037,0.055c-0.642,0.009 -1.285,0 -1.927,0c-0.652,0 -1.386,0.009 -1.982,0c-0.533,-0.008 -1.12,-0.064 -1.597,-0.055c-0.424,0.008 -0.849,0.035 -1.267,0.11c-0.56,0.101 -1.569,0.321 -2.093,0.496c-0.374,0.125 -0.715,0.337 -1.046,0.551c-0.441,0.285 -1.111,0.753 -1.597,1.156c-0.469,0.39 -0.936,0.835 -1.322,1.267c-0.367,0.411 -0.729,0.837 -0.991,1.322c-0.303,0.56 -0.615,1.413 -0.826,2.037c-0.188,0.557 -0.349,1.184 -0.441,1.707c-0.083,0.471 -0.126,0.953 -0.11,1.432c0.018,0.551 0.128,1.289 0.22,1.872c0.086,0.546 0.193,1.106 0.33,1.624c0.134,0.505 0.312,0.998 0.496,1.487c0.193,0.514 0.385,1.147 0.661,1.597c0.258,0.421 0.631,0.764 0.991,1.101c0.431,0.404 1.02,0.942 1.597,1.322c0.642,0.422 1.551,0.872 2.258,1.211c0.645,0.31 1.284,0.667 1.982,0.826c0.725,0.165 1.577,0.139 2.368,0.165c0.817,0.028 1.689,0.009 2.533,0c0.872,-0.009 1.799,-0.055 2.698,-0.055c1.019,0 2.464,-0.032 3.414,0.055c0.774,0.071 1.62,0.28 2.285,0.468c0.587,0.166 1.193,0.468 1.707,0.661c0.457,0.171 0.957,0.247 1.377,0.496c0.541,0.321 1.331,0.982 1.872,1.432c0.48,0.398 1.027,0.75 1.377,1.267c0.367,0.541 0.661,1.322 0.826,1.982c0.161,0.643 0.132,1.32 0.165,1.982c0.037,0.725 0.11,1.698 0.055,2.368c-0.046,0.564 -0.199,1.118 -0.385,1.652c-0.211,0.606 -0.597,1.368 -0.881,1.982c-0.265,0.574 -0.496,1.175 -0.826,1.707c-0.33,0.532 -0.798,1.01 -1.156,1.487c-0.339,0.452 -0.652,0.936 -0.991,1.377c-0.334,0.434 -0.659,0.879 -1.046,1.267c-0.422,0.422 -1.074,0.863 -1.487,1.267c-0.363,0.355 -0.623,0.807 -0.991,1.156c-0.376,0.358 -0.87,0.631 -1.267,0.991c-0.404,0.367 -0.826,0.762 -1.156,1.211c-0.358,0.486 -0.716,1.248 -0.991,1.707c-0.212,0.354 -0.485,0.673 -0.661,1.046c-0.22,0.468 -0.514,1.175 -0.661,1.762c-0.144,0.574 -0.211,1.17 -0.22,1.762c-0.009,0.61 0.101,1.363 0.165,1.9c0.053,0.443 0.11,0.889 0.22,1.322c0.128,0.505 0.312,1.175 0.551,1.707c0.236,0.526 0.58,0.996 0.881,1.487c0.321,0.523 0.606,1.184 1.046,1.652c0.441,0.468 1.188,0.878 1.597,1.156c0.274,0.187 0.56,0.359 0.854,0.512c0.315,0.164 0.676,0.356 1.038,0.474c0.496,0.162 1.346,0.406 1.94,0.496c0.535,0.081 1.082,0.045 1.624,0.045c0.594,0 1.368,0.045 1.94,-0.045c0.517,-0.082 1.005,-0.298 1.489,-0.496c0.568,-0.233 1.331,-0.59 1.917,-0.902c0.551,-0.293 1.175,-0.675 1.601,-0.97c0.342,-0.237 0.701,-0.573 0.959,-0.801c0.203,-0.18 0.412,-0.356 0.586,-0.564c0.214,-0.256 0.466,-0.692 0.699,-0.97c0.212,-0.253 0.47,-0.492 0.699,-0.699c0.215,-0.193 0.469,-0.34 0.677,-0.541c0.241,-0.233 0.486,-0.597 0.767,-0.857c0.308,-0.286 0.733,-0.59 1.083,-0.857c0.333,-0.255 0.722,-0.5 1.015,-0.744c0.266,-0.221 0.477,-0.503 0.744,-0.722c0.286,-0.233 0.641,-0.46 0.97,-0.677c0.342,-0.226 0.731,-0.437 1.083,-0.677c0.365,-0.248 0.714,-0.575 1.105,-0.812c0.391,-0.237 0.827,-0.421 1.241,-0.609c0.408,-0.185 0.829,-0.341 1.241,-0.519c0.462,-0.199 1.053,-0.53 1.534,-0.677c0.436,-0.133 0.898,-0.169 1.353,-0.203c0.508,-0.038 1.218,-0.075 1.692,-0.023c0.397,0.044 0.789,0.214 1.15,0.338c0.345,0.118 0.705,0.215 1.015,0.406c0.323,0.199 0.673,0.605 0.925,0.789c0.179,0.131 0.413,0.177 0.586,0.316c0.278,0.222 0.771,0.658 1.083,1.015c0.302,0.346 0.571,0.804 0.789,1.128c0.18,0.266 0.368,0.528 0.519,0.812Z" style="fill:#f8ffa1;stroke:#fff;stroke-width:0.24px;"/><path id="sol" d="M116.789,142.208c0.482,0.109 1.667,0.383 2.514,0.493c0.915,0.119 2.028,0.184 2.974,0.22c0.899,0.035 1.845,0.064 2.698,0c0.816,-0.061 1.628,-0.193 2.423,-0.385c0.909,-0.22 2.038,-0.569 3.029,-0.936c0.991,-0.367 1.994,-0.747 2.919,-1.267c0.964,-0.541 2.138,-1.386 2.864,-1.982c0.562,-0.462 1.006,-1.052 1.487,-1.597c0.551,-0.624 1.312,-1.368 1.817,-2.148c0.505,-0.78 0.877,-1.863 1.211,-2.533c0.251,-0.503 0.584,-1.055 0.795,-1.486c0.175,-0.358 0.328,-0.728 0.469,-1.101c0.15,-0.397 0.322,-0.911 0.433,-1.281c0.093,-0.309 0.154,-0.626 0.235,-0.938c0.093,-0.361 0.259,-0.854 0.325,-1.227c0.059,-0.332 0.065,-0.673 0.072,-1.01c0.015,-0.725 0.021,-2.529 0.018,-3.338c-0.002,-0.505 0.022,-1.014 -0.036,-1.516c-0.069,-0.601 -0.201,-1.407 -0.379,-2.093c-0.186,-0.719 -0.517,-1.603 -0.74,-2.219c-0.181,-0.5 -0.367,-1 -0.595,-1.48c-0.271,-0.568 -0.689,-1.338 -1.029,-1.931c-0.317,-0.553 -0.622,-1.118 -1.01,-1.624c-0.469,-0.611 -1.368,-1.57 -1.804,-2.039c-0.255,-0.274 -0.535,-0.524 -0.812,-0.776c-0.403,-0.367 -1.059,-1.01 -1.606,-1.426c-0.528,-0.4 -1.137,-0.749 -1.678,-1.065c-0.511,-0.298 -1.144,-0.623 -1.57,-0.83c-0.32,-0.156 -0.649,-0.294 -0.983,-0.415c-0.441,-0.159 -1.128,-0.37 -1.66,-0.541c-0.511,-0.164 -1.029,-0.364 -1.534,-0.487c-0.492,-0.12 -0.995,-0.195 -1.498,-0.253c-0.502,-0.057 -1.01,-0.068 -1.516,-0.09c-0.543,-0.024 -1.316,-0.045 -1.74,-0.054c-0.268,-0.006 -0.536,0 -0.804,0c-0.29,0 -0.641,-0.009 -0.938,0c-0.283,0.009 -0.568,0.013 -0.848,0.054c-0.325,0.048 -0.732,0.166 -1.101,0.235c-0.418,0.078 -0.974,0.126 -1.407,0.235c-0.408,0.102 -0.83,0.293 -1.191,0.415c-0.324,0.109 -0.671,0.188 -0.974,0.316c-0.295,0.124 -0.559,0.314 -0.848,0.451c-0.304,0.144 -0.66,0.255 -0.974,0.415c-0.349,0.177 -0.779,0.451 -1.119,0.65c-0.307,0.179 -0.618,0.353 -0.92,0.541c-0.328,0.205 -0.761,0.484 -1.047,0.686c-0.231,0.163 -0.451,0.341 -0.668,0.523c-0.226,0.189 -0.455,0.412 -0.686,0.614c-0.235,0.205 -0.489,0.4 -0.722,0.614c-0.262,0.241 -0.581,0.538 -0.848,0.83c-0.274,0.299 -0.571,0.665 -0.794,0.965c-0.198,0.268 -0.358,0.561 -0.541,0.839c-0.201,0.305 -0.46,0.668 -0.668,0.992c-0.2,0.314 -0.397,0.638 -0.577,0.956c-0.178,0.314 -0.347,0.632 -0.505,0.956c-0.168,0.346 -0.385,0.809 -0.505,1.119c-0.093,0.24 -0.133,0.497 -0.217,0.74c-0.09,0.262 -0.232,0.57 -0.325,0.83c-0.086,0.241 -0.171,0.516 -0.235,0.731c-0.054,0.185 -0.103,0.371 -0.144,0.559c-0.042,0.192 -0.072,0.397 -0.108,0.595c-0.042,0.229 -0.111,0.515 -0.144,0.776c-0.039,0.307 -0.07,0.709 -0.09,1.065c-0.021,0.364 -0.024,0.821 -0.036,1.119c-0.009,0.223 -0.024,0.467 -0.036,0.668c-0.011,0.18 -0.034,0.359 -0.036,0.539c-0.003,0.226 0.012,0.568 0.018,0.815c0.005,0.223 0.012,0.445 0.018,0.668c0.006,0.241 -0.01,0.519 0.018,0.776c0.03,0.274 0.117,0.617 0.162,0.866c0.038,0.21 0.069,0.422 0.108,0.632c0.051,0.274 0.135,0.737 0.198,1.01c0.049,0.213 0.124,0.42 0.18,0.632c0.078,0.295 0.208,0.841 0.289,1.137c0.059,0.216 0.129,0.428 0.198,0.641c0.075,0.23 0.162,0.523 0.253,0.74c0.081,0.194 0.196,0.371 0.289,0.559c0.111,0.226 0.235,0.544 0.379,0.794c0.143,0.247 0.352,0.489 0.487,0.704c0.119,0.189 0.214,0.408 0.325,0.586c0.105,0.169 0.229,0.324 0.343,0.487c0.132,0.189 0.301,0.433 0.451,0.65c0.15,0.217 0.287,0.443 0.451,0.65c0.177,0.223 0.411,0.456 0.614,0.686c0.226,0.256 0.511,0.589 0.74,0.848c0.209,0.236 0.424,0.481 0.632,0.704c0.2,0.215 0.391,0.44 0.614,0.632c0.235,0.201 0.532,0.385 0.794,0.577c0.26,0.191 0.514,0.389 0.776,0.577c0.277,0.198 0.586,0.414 0.884,0.614c0.346,0.232 0.836,0.574 1.191,0.776c0.3,0.17 0.626,0.287 0.938,0.433c0.334,0.156 0.704,0.348 1.065,0.505c0.373,0.162 0.914,0.364 1.173,0.469c0.127,0.052 0.245,0.132 0.379,0.162Z" style="fill:#ffd34f;stroke:#fff;stroke-width:0.24px;"/></svg>